<?xml version="1.0" encoding="utf-8"?>
<!-- Generator: Adobe Illustrator 27.7.0, SVG Export Plug-In . SVG Version: 6.00 Build 0)  -->
<svg version="1.1" id="Layer_1" xmlns:ev="http://www.w3.org/2001/xml-events"
	 xmlns="http://www.w3.org/2000/svg" xmlns:xlink="http://www.w3.org/1999/xlink" x="0px" y="0px" viewBox="0 0 612 792"
	 style="enable-background:new 0 0 612 792;" xml:space="preserve">
<g>
	<path d="M110.7,343c0-16.6,0.2-33.2-0.1-49.8c-0.1-6.9,2.5-12.3,7.2-17c7-6.9,15.7-11.3,24.4-15.5c6.3-3,12.8-5.7,19.3-8.4
		c2.9-1.2,4.3-2.7,4.2-6.1c-0.6-17.3,6.2-30.3,22.4-37.7c1.6-0.7,2.6-1.8,3.1-3.7c5.9-23.7,34.2-36.4,52.3-32.7
		c2.4,0.5,3.9-0.2,5.6-1.8c16.5-15.5,38.4-16.7,56.5-3c1.8,1.4,2.8,1.5,4.6,0c19.8-15.6,45-10.6,56.8,3.7c1.8,2.2,3.9,1.2,5.8,0.9
		c17.8-2.8,37,5.9,46.2,21c2.3,3.8,3.8,7.9,5.4,11.9c0.5,1.4,1.1,2.6,2.6,3.3c16,7,22,20.3,22.5,36.7c0.1,4.3,1.6,6.3,5.4,7.8
		c10.8,4.5,21.6,8.9,31.4,15.3c4.3,2.7,8.4,5.5,11.8,9.3c4.3,4.8,6.6,10.2,6.5,16.9c-0.2,33.8-0.1,67.7-0.1,101.5
		c0,2.1-0.3,3.6,3,3.6c19.8,0,36.3,13.9,40.9,33.5c2.4,10.3,1.2,20.6,0.6,30.9c-0.7,11.5-2.2,23-5.5,34.1
		c-6.4,21.6-18.7,39.1-37.9,51.3c-6.6,4.2-13.9,7.2-21.9,8c-2.5,0.2-3.2,1.5-3.6,3.7c-5.6,33.7-19.1,64-40.1,90.7
		c-26.1,33.2-58.8,57.3-100.1,68.3c-36.7,9.8-71.3,2.6-103.9-15.6c-31.1-17.3-55.9-41.3-74.6-71.7c-13.5-21.9-22.4-45.3-26.5-70.6
		c-0.5-3-1.5-4.2-4.8-4.7c-14.9-2.3-26.8-10.5-36.8-21.3c-16-17-25-37.2-26.7-60.6c-0.9-12-2.7-24-1.6-36.1
		c1.8-20.1,15.9-35.9,35.1-39.5c2.2-0.4,4.5-0.6,6.7-0.4c2.8,0.3,3.6-0.7,3.6-3.5c-0.1-17,0-34,0-50.9
		C110.7,344.3,110.7,343.7,110.7,343C110.7,343,110.7,343,110.7,343z M156.7,537.5c-1,1.3-0.6,2.4-0.7,3.4
		c-0.8,12.7,2.1,24.8,5.7,36.7c16.9,55.5,52.1,94.4,105.8,116.3c28,11.4,56.2,11.1,83.9-1.3c53.6-23.9,88.3-64.1,103.7-120.8
		c3-11.2,4.4-22.5,3.7-34.8c-7.8,7.2-15.3,13.7-24.1,19.8c0-3.1,0.2-5.4,0-7.6c-0.5-4.2,1.1-6.9,4.6-9.2c5.7-3.8,11.1-8.1,16.8-12.1
		c2.3-1.6,3.2-3.4,3.1-6.2c-0.1-31.2-0.6-62.4,0.2-93.5c0.3-12.7-1.6-23.7-10.8-32.9c-0.3-0.3-0.5-0.6-0.7-0.9
		c-0.8-0.9-0.8-1.9-0.4-3c4-11.7,5.9-23.9,7.3-36.2c0.9-8,1.6-16,2.4-23.9c-99.9,26.8-199.3,26.8-299-0.4c0.3,4.6,0.6,9.1,1,13.6
		c1.2,15.8,3.3,31.4,8,46.5c0.6,2-0.1,3.3-1.1,4.7c-3,3.9-5.8,7.9-8.8,11.8c-1.1,1.4-1.6,2.9-1.6,4.8c0,36.3,0,72.7,0,109
		c0,2.7,0.9,4.4,3,6c6.2,4.6,12.3,9.3,18.4,14c1.1,0.9,2.8,1.5,2.8,3.1c0.1,3.9,0,7.7,0,12.4C171.5,550.3,163.8,544.5,156.7,537.5z
		 M298.5,205.7c0-4.8,0-8.9,0-13c0-2.8-1-5.2-2.6-7.4c-7.3-9.9-23-11.4-32.3-3.2c-2.2,2-3.6,3.9-2.3,7.2c1.3,3.4-0.3,6.2-3.2,8.2
		c-3,2-5.8,1.6-8.3-0.8c-9.3-9.2-27.4-8.6-36.6,7c-1.9,3.3-3,5.8,1.8,7.2c0.5,0.1,0.9,0.5,1.3,0.9c2.1,2.2,5.4,4,3.5,7.9
		c-2.4,5.1-6.2,7-10.7,5.5c-12.5-4.2-25.7,5.4-25.4,21.2c0,1.1,0.2,1.7,1.5,1.9c5.2,0.9,8.7,4.4,11.7,8.3c1.5,2,2.5,2.3,4.7,0.8
		c6-4.1,12.6-6.8,20.1-6.1c2.8,0.3,2.8-0.9,2.6-3.2c-0.8-8.8,2-16.8,5.8-24.4c1.6-3.3,4.9-3.7,7.6-1.3c2.5,2.2,3.3,4.6,2.2,8.1
		c-5.6,17.4-1.5,28.1,14,37.8c0.9,0.6,1.8,1.1,2.7,1.7c3.7,2.3,3.8,4.8,0.1,7.2c-4.2,2.9-8.6,2.2-12.8-0.1
		c-4.8-2.5-8.6-6.2-12.4-9.9c-5.5-5.2-11.6-5.8-18.3-3.2c-4,1.6-7.4,4.2-11,6.4c-3.3,2.1-6.3,1.7-9.1-0.7c-1.1-0.9-2.1-2-3.2-3
		c-3.2-3.3-7-4.2-11.3-3.1c-6.7,1.7-10.3,6.4-12.6,12.7c-1.2,3.3-0.7,5.6,2.2,7.9c5.7,4.7,5.4,7.1-1.2,10.3
		c-6.7,3.2-11.1,8.3-13.8,15.2c-0.8,1.9-0.6,2.9,1.5,3.5c3.6,1,7.1,2.1,10.5,3.5c2.4,1,3.6,0.3,4.7-1.8
		c5.8-11.1,16.4-19.2,20.1-31.7c0.9-3,4.1-3.8,7-2.9c3.1,0.9,4.3,3.4,3.9,6.5c-0.7,5.7-2.3,11.2-5.5,16c-3.5,5.3-7.1,10.6-10.6,15.9
		c-0.8,1.3-1.7,2.6,0.6,3.2c8.7,2.3,17.4,4.6,26,6.8c-2-2.1-4.3-3.6-6.5-5.3c-3.5-2.6-4.1-5.2-1.9-8.4c2.1-3.2,5.3-3.8,8.9-1.6
		c3.7,2.3,7.3,4.7,11.2,7.3c1-7.1,3.5-13.3,7.5-18.8c4-5.5,9.6-8.6,16-10.5c3.4-1,8.7,1.8,9.4,5.1c0.7,3.2-2.8,3.3-4.4,4.7
		c-0.9,0.8-2,1.3-3,2c-7.6,5.7-11.3,13.2-9.9,22.8c0.5,3.5,1.9,6.2,6.2,6.5c11,0.6,21.9,1.7,32.9,2.3c7,0.3,14,0.1,21,0.1
		c-1.8-9.4-11.7-16.3-21-14.6c-1.7,0.3-3.4,0.8-5,1.1c-3.3,0.5-7.1-1.6-7.7-4.2c-0.9-3.6,1.7-5,4.2-6.3c2.7-1.4,5.7-2,8.7-2.8
		c2.9-0.8,5.9-1.5,8.7-2.6c7.7-3,11.9-8.5,11.7-17.1c-0.1-2.8,0-5.6,0-8.4c0-16.5-10.4-28.1-26.9-29.9c-1.3-0.1-2.6-0.2-3.9-0.8
		c-1.8-0.9-2.9-2.3-3-4.3c-0.2-2.1,0.8-3.5,2.6-4.5c1.8-1,3.6-1.6,5.6-1.7c8.2-0.7,15.4,1.6,22.1,6.2c0.9,0.6,1.5,1.9,3.3,1.7
		c0-3.8-0.3-7.7,0.1-11.5c1.4-13.2-10.6-22.8-21.9-22.5c-4.6,0.1-6.6-1.5-6.9-4.9c-0.4-4.2,2.5-5.5,5.8-6.3
		C283.6,199.2,291,201,298.5,205.7z M403.2,328.1c9.7-1.4,18.2-4,26.8-6.2c2.7-0.7,0.8-2.1,0.3-2.9c-3.6-5.7-7.5-11.3-11.1-17
		c-3.2-5-5.3-10.4-5.2-16.4c0.1-4.4,4.2-7.1,8.3-5.3c2.5,1.1,4.1,3.1,4.5,5.7c0.9,4.9,3.7,8.7,6.7,12.4c2.4,2.9,4.4,6,6.8,8.8
		c2.7,3.1,3.3,9,7.3,9.5c3.8,0.5,8-2.4,12-3.5c2.8-0.8,2.7-2.2,1.7-4.3c-3-6.5-7.4-11.4-14-14.6c-6.2-3-6.3-5.8-1-10.2
		c1.2-1,2.6-1.8,2.9-3.6c1.2-9.3-10.9-19.4-19.7-16.5c-2.8,0.9-4.5,3.2-6.5,5c-3.8,3.5-6.4,3.8-10.7,1.1c-2.1-1.3-4.1-2.9-6.3-4.2
		c-6.5-3.8-16.3-5.3-23.6,2.6c-4.2,4.6-9.1,8.6-15.5,10.1c-4,0.9-7.3,0-10-3.1c-1.5-1.8-1.5-3.3,0.5-4.6c2-1.3,3.9-2.7,5.9-4
		c13.7-9.1,17.5-20.6,11.8-36c-1.5-4,0.1-7.8,3.9-9.4c3-1.3,5.6,0.1,7.4,4.7c3,7.4,5.6,14.9,4.6,23.1c-0.2,1.6,0.2,2.2,1.8,2
		c8.1-0.7,15.1,2.3,21.5,6.9c1.6,1.2,2.2,0.9,3.3-0.7c2.8-4.2,6.4-7.4,11.3-9c1-0.3,1.8-0.5,2.1-2c2.3-13.2-12.3-25.8-25.2-21.5
		c-4.4,1.5-8.6-0.5-11.1-5.3c-1.3-2.6,0.2-5.5,4.3-8.3c0.3-0.2,0.7-0.4,1-0.6c4.4-2.6,4.6-3,2.1-7.4c-8.5-15.1-26.8-16-35.6-7.2
		c-3.8,3.8-8.3,3-11.2-1.1c-1.6-2.3-1.2-4.9-0.8-7.3c0.3-1.9,0-3.3-1.2-4.7c-8.9-10.1-28.9-7.6-34.5,4.6c-2.5,5.4-0.9,11.3-1.2,17.6
		c8.2-5,16.1-6.2,24.6-3.4c2.9,0.9,4.5,2.9,4,6c-0.5,3-2.3,4.7-5.5,4.6c-1.2,0-2.4,0-3.6,0c-10.2,0.3-19.3,9.2-19.6,19.3
		c-0.1,4.9,0,9.7,0,14.6c1.2,0.3,1.4-0.5,1.9-0.9c7.7-5.6,16.1-8.7,25.7-6.6c3.1,0.7,5.9,2.2,5.5,6.1c-0.4,3.9-3.2,4.7-6.6,4.8
		c-9.2,0.3-15.9,4.7-21.2,12.2c-6.1,8.5-5.6,17.9-5.3,27.5c0.2,7.4,3.6,12.2,10.1,15.2c3.3,1.5,6.7,2.5,10.2,3.2
		c3,0.6,6,1.3,8.7,2.8c2.4,1.3,4.8,3,3.6,6.2c-1.2,3.2-3.9,4.6-7.3,4.2c-1.7-0.2-3.4-0.7-5.1-1c-8-1.4-16.9,3.4-19.9,10.7
		c-1.6,3.8-1.2,4.4,2.7,4.3c16.5-0.1,32.9-1.3,49.3-2.6c4.3-0.3,6.1-2.8,6.8-6.5c1.6-8.6-1.3-15.7-7.9-21.2
		c-2.3-1.9-5.1-3.4-7.5-5.2c-1-0.7-2.4-1.5-1.6-3.2c1.6-3.8,6.8-6.2,10.7-4.6c6,2.4,11.3,5.7,15.1,11.2c3.7,5.2,5.5,11.2,6.9,17.5
		c4.2-2.6,8-5,11.8-7.5c3.2-2,5.9-1.1,8.1,1.5c2.2,2.6,1.8,5.6-1,8C408.8,324.4,406.3,325.9,403.2,328.1z M133.2,468.6
		c0.1-10,0.9-19.9-0.3-29.8c-1.6-13.2-15.6-24.1-28.7-22.7c-13.5,1.4-23.1,12.7-21.3,27.2c2.1,17.5,4.9,34.9,10.1,51.8
		c6,19.3,18.2,33.5,37,41.8c2.6,1.1,4.1,1.4,3.9-2.3c-0.3-4.9-0.1-9.8,0-14.7c0-2.1-0.6-3.5-2.3-4.6c-4.6-3.1-9.2-6.3-13.6-9.7
		c-12.6-9.9-14.6-27.7-4-38.5c3.2-3.3,2.8-5.6,1.3-8.8c-0.7-1.4-1.4-2.9-2.2-4.2c-1.7-2.7-3.9-3.4-6.7-1.7c-3.6,2.1-6.4,5.1-8.7,8.6
		c-0.5,0.9-0.8,2.3-2.2,1.2c-2.8-2.2-5.8-4.6-5.4-8.7c0.7-6.9,3.5-12.5,10.2-15.5c6-2.6,12.5-0.9,17.7,4.5c4,4,6.4,9.1,8.8,14.1
		C128.7,460.5,130.1,465,133.2,468.6z M481.3,469.5c0.3,0.1,0.6,0.2,1,0.3c0.9-1.7,1.9-3.4,2.7-5.1c2.5-5.1,4.8-10.4,7.4-15.4
		c2.5-4.8,6.1-8.7,11-11.1c7-3.4,14.2-1.3,18.4,5.2c4.8,7.5,4.3,13-1.7,18.3c-1.7,1.5-2.5,1.3-3.4-0.7c-1.2-2.5-3-4.6-5.1-6.6
		c-5.1-4.7-7.2-4.4-10.6,1.7c-0.8,1.4-1.4,2.9-2.1,4.3c-1,1.9-0.8,3.3,0.9,5.1c7.6,8.2,10.3,17.8,6.3,28.6c-2.2,6-6.9,9.9-11.9,13.6
		c-4.4,3.3-10.9,5.2-12.9,10c-1.9,4.8-0.2,11-0.5,16.5c-0.2,3.8,1.1,3.8,4,2.6c18.4-7.7,30.5-21.4,36.3-40.2
		c5.4-17.5,7.7-35.7,10.8-53.7c1.2-6.8-1.4-13.1-5.9-18.4c-6.8-7.8-15.5-10.4-25.2-7.3c-10.8,3.4-17.5,11.2-19.3,22.6
		C480.1,449.6,481.7,459.6,481.3,469.5z"/>
	<path d="M345.4,99.2c-0.1,10.5-3.7,19.1-13.1,24.7c-4.2,2.5-8.2,5.5-10.3,10.2c-0.7,1.4-1.4,1.4-2.3,0.2c-3.8-5-9.3-8.3-13.6-12.8
		c-7.8-8.2-8.6-14.8-2.2-24.1c6.1-9,9.6-18.5,7.6-29.6c-0.9-4.9-3.1-9.3-5.9-13.3c-0.5-0.7-1.5-1.4-0.9-2.4c0.7-1.2,1.9-0.8,2.9-0.5
		c4.1,1.1,7.9,3,11.5,5.4c13.8,9.1,24,20.8,26.2,37.9C345.3,96.3,345.3,97.8,345.4,99.2z"/>
	<path d="M307.4,150.1c-4.1-0.1-7.7-1.7-11.5-2.9c-12.3-4-24.4-4.3-36.4,1.2c-2.8,1.3-5.6,2.7-7.6,5c-2.4,2.7-3.6,1.4-4.7-1
		c-2.4-5.3-3.4-10.9-3.2-16.6c0.5-21,16.7-41.5,37.1-47.2c1.1-0.3,2.4-1.1,3.3,0.1c0.8,1.2-0.7,1.8-1.2,2.6
		c-8.7,13.6-5.6,34.4,6.8,46.3C295.2,142.7,301.4,146.3,307.4,150.1z"/>
	<path d="M331.9,143.3c9.4-3.3,17.3-8.4,23.5-15.9c6.1-7.3,9.3-15.7,8.8-25.3c-0.1-1.2-0.6-2.6,0.7-3.3c1.4-0.8,2.1,0.7,2.9,1.5
		c13.8,14.1,16.6,38.8,6.3,55.3c-1,1.6-1.7,2.5-3.5,0.8c-9.7-9.5-21.9-12.4-35-12.5C334.5,144,333.3,144.4,331.9,143.3z"/>
	<path d="M390.9,158.3c9.5-11.7,10.3-20.9,3.2-33.8c-0.4-0.7-1.3-1.4-0.4-2c0.5-0.4,1.5-0.4,2.2-0.2c5.6,1.3,10.2,4.2,13.9,8.6
		c7,8.4,8.3,22.2,3.2,31.8c-1.1,2.1-2.1,3-4.5,1.5C403.2,160.9,397.1,159.7,390.9,158.3z"/>
	<path d="M229.8,158c-6.5,1.5-12.9,2.6-18.6,6c-1.4,0.8-2.1,0-2.8-1.2c-8.7-14.9-0.8-35.4,15.6-40.3c1.2-0.4,2.7-1.3,3.7-0.1
		c0.9,1.1-0.6,2.1-1.1,3.1C221,136.9,221.6,147.7,229.8,158z"/>
	<path d="M321.6,473.6c-8.7,12.9-19.5,13.2-27.9-0.3c-1.6,2.2-3.1,4.3-5.1,6c-4.3,3.6-9.1,5.6-14.7,3.7c-2.4-0.8-3.4,0-4.7,2
		c-10.9,16.8-28,23.9-46.1,19.5c-17.6-4.3-30.6-20-32.4-39c-0.6-6.2,0.6-12.2,2.7-17.9c0.8-2.2,0.5-3-1.9-3.9
		c-8.4-3.2-16.6-6.8-25.3-10.4c10.4-7.2,20.3-14.5,31.3-20.1c3.5-1.8,6.7-0.9,9.8,1c7.6,4.6,15.2,9.2,22.8,13.8
		c11.8,7.1,23.6,14.2,35.4,21.4c3.3,2,6.7,3.6,10.4,1.3c3.8-2.4,4.7-6.1,4.4-10.4c-0.6-7-2.7-13.5-6.2-19.5c-0.6-1-1.8-2.1-0.9-3.2
		c1.2-1.4,2.4,0.1,3.5,0.5c1.6,0.6,3.1,1.5,4.7,2.1c9.6,4.1,14.3,11.8,15.7,21.8c0.6,4.1,0.8,8.2,0.6,12.3c-0.1,2.4,0.9,3.7,2.9,4.5
		c2.5,1,4.9,1.9,7.7,1.8c7.6-0.3,9.3-2.1,9.5-9.6c0.1-3.6,0.4-7.2,0.9-10.7c1.9-12.7,10.5-19,21.8-22.7c0.6-0.2,1.2-0.8,1.8-0.1
		c0.9,0.9,0.1,1.8-0.4,2.5c-3.3,5.2-5.5,10.9-6.5,17c-0.3,2-0.5,4-0.4,5.9c0.3,7,6.2,10.8,12.4,7.6c11.3-5.8,21.8-13,32.7-19.7
		c8.5-5.2,17-10.3,25.4-15.6c5.1-3.2,9.9-3.5,15.1-0.1c8.3,5.5,16.7,10.8,25.1,16.1c0.7,0.5,1.7,0.8,1.9,2.1
		c-7.7,3.3-15.4,6.9-23.2,9.9c-3.1,1.2-3.9,2-2.7,5.4c5.2,15.2,2.6,29.3-7.6,41.8c-18.2,22.1-52.8,19.9-68-4.4
		c-1.5-2.3-2.6-3.3-5.6-2.6c-5.6,1.4-10.5-0.5-14.5-4.5C324.6,477.4,323.3,475.6,321.6,473.6z M378.1,490.2
		c22.9,0,35.9-19.5,28.2-37c-0.4-0.9-0.4-2.2-1.7-2.4c-2.8-0.4-8.2,4.5-8.1,7.4c0.2,6.7-2.1,12.2-7.3,16.4
		c-7.2,5.7-15.3,6.2-23.5,0.9c-2.6-1.7-4.5-0.6-6.1,0.8c-1.6,1.4,0.4,2.9,1.3,4C366.1,486.9,373.1,490.1,378.1,490.2z M233.5,490.2
		c8.8,0,17.4-4.3,22.2-11.2c0.5-0.8,2.4-1.9,0.6-2.8c-1.9-1-3.6-2.9-6.4-0.8c-6.3,4.7-13.2,5-20.2,1.6c-7.2-3.5-11.4-9.5-11.1-17.4
		c0.2-4.8-1.8-6.3-5.5-7.8c-2.4-1-3.1-0.4-4,1.7C201.7,471.3,214.1,490.1,233.5,490.2z"/>
	<path d="M304.5,606.8c24.9,0.3,47.4,3.4,69,11.3c2.1,0.8,4.2,1.6,6.2,2.7c4.8,2.7,6.6,7,4.7,10.8c-2,4-6.8,5.4-11.8,3.4
		c-8.7-3.5-17.6-6.6-26.9-8.4c-35.2-6.7-69.8-5.6-103.6,7.8c-5.3,2.1-8.9,1.1-10.8-3c-2-4.2-0.5-8.4,4.3-10.9
		c10-5.2,20.8-7.9,31.7-10C280.3,608.1,293.4,606.9,304.5,606.8z"/>
	<path d="M274,538.2c-0.4,1.5-1.8,2.2-2.7,3.3c-6.7,8-4.8,18.4,4.1,23.7c10.3,6,20.9,11.2,33.2,10.8c13.1-0.5,24.5-5.6,34.3-14.1
		c6-5.2,5.9-14.5,0.2-20.6c-1-1-2-2-3.2-3.1c12.7-1.4,21.8,9.1,19.7,22.1c-1.5,9-7,15.2-14,20.4c-22.7,16.6-56.1,16-78-1.4
		c-8.2-6.5-13-14.6-12-25.4C256.4,544.4,264.7,537.4,274,538.2z"/>
</g>
</svg>
